<svg xmlns="http://www.w3.org/2000/svg" width="512" height="512" viewBox="0 0 512 512" role="img" aria-labelledby="title desc">
  <title id="title">Dr. Luciano Stricker | Cirugía Plástica</title>
  <desc id="desc">Icono en tonos fucsia con silueta de rostro y texto de marca.</desc>
  <defs>
    <linearGradient id="bg" x1="0" x2="1" y1="0" y2="1">
      <stop offset="0%" stop-color="#c44d9b" />
      <stop offset="100%" stop-color="#b22978" />
    </linearGradient>
    <linearGradient id="shine" x1="0" x2="0" y1="0" y2="1">
      <stop offset="0%" stop-color="#ffffff" stop-opacity="0.32" />
      <stop offset="100%" stop-color="#ffffff" stop-opacity="0" />
    </linearGradient>
    <clipPath id="round">
      <rect x="24" y="24" width="464" height="464" rx="92" ry="92" />
    </clipPath>
  </defs>
  <g clip-path="url(#round)">
    <rect x="24" y="24" width="464" height="464" rx="92" ry="92" fill="url(#bg)" />
    <rect x="24" y="24" width="464" height="232" fill="url(#shine)" />
    <path fill="#ffffff" d="M232.3 125c-35.7 10.2-57.3 36-64.8 75.4-5.9 31.1 1.7 62.7 20.8 86.6l30.5 38.6-32.9 63.9c-3.7 7.1-.8 15.8 6.3 19.4 2.1 1.1 4.4 1.6 6.7 1.6 5.3 0 10.5-2.8 13.1-7.8l36.2-70.4c1.9-3.8 1.4-8.4-1.2-11.7l-34.4-43.5c-13.6-17.3-19-39.8-14.8-61.9 5.1-27.1 20.9-44.6 47.2-52.1 18.8-5.3 38.2-4.5 54.9 2.2 7.6 3.1 11.3 11.8 8.2 19.4-3.1 7.6-11.8 11.3-19.4 8.2-10.7-4.3-23.4-4.8-35.9-1.3-12 3.4-24.5 12.3-27.8 30-2.4 12.8 2 26 11.8 38.5l38.5 48.9c2.1 2.7 5.2 4.4 8.6 4.7l47.8 4.6c7.9.8 14.9-5 15.7-12.8.8-7.9-5-14.9-12.8-15.7l-42.3-4.1-32-40.7c-6-7.6-8.3-14.4-7.3-19.6 1.7-9.1 10.5-11.8 16.2-13.4 14.9-4.3 30.4-3 45.7 3.9 22.8 10 37 31.2 35.5 54.9-.8 13-4.9 24.4-12.3 33.9-7.7 9.9-18.6 17.3-31.3 21.2-4.7 1.4-8 5.5-8.2 10.4l-2.5 64.5c-.3 8.1 6 14.9 14.1 15.2h.6c7.8 0 14.3-6.1 14.6-14l2.2-56.7c24.7-9.4 41.5-29.9 47.3-56.1 3.6-16.3 3.6-46.7-24.5-77.3-18.8-20.3-61.5-38.2-106.7-25.6Z" />
    <path fill="#ffffff" d="M270.5 401.6c-8.6 0-15.6 7-15.6 15.6s7 15.6 15.6 15.6c8.6 0 15.6-7 15.6-15.6s-7-15.6-15.6-15.6Z" />
  </g>
  <text x="256" y="450" text-anchor="middle" font-family="'Montserrat', 'Helvetica Neue', Arial, sans-serif" font-size="42" font-weight="700" letter-spacing="3" fill="#ffffff">STRICKER</text>
  <text x="256" y="484" text-anchor="middle" font-family="'Montserrat', 'Helvetica Neue', Arial, sans-serif" font-size="20" font-weight="500" letter-spacing="1" fill="#f8e9f2">CIRUGÍA PLÁSTICA · ESTÉTICA · RECONSTRUCCIÓN</text>
</svg>
